<svg version="1.1"
     id="oxyplug_howto"
     xmlns="http://www.w3.org/2000/svg"
     x="0px"
     y="0px"
     width="24"
     height="24"
     viewBox="0 0 24 24"
     xml:space="preserve">
<g id="oxyplug_howto-2">
  <path fill="black" d="M15.3,17.6c-1.9,0-4,0-6.2,0c-0.2,0-0.4-0.2-0.5-0.4c-0.7-1.2-1.3-2.5-2.1-3.7c-1.2-1.8-2-3.6-2-5.8
    c0.1-4.2,3.5-7.7,7.6-7.7c4.3,0,7.7,3.4,7.7,7.7c0,2.1-0.7,4-1.9,5.7C17,14.7,16.2,16.1,15.3,17.6z"/>
  <path fill="black" d="M15.6,19.1c0,1.2,0.1,2.5,0,3.7c0,0.7-0.6,1.2-1.3,1.2c-1.4,0-2.8,0.1-4.2,0c-0.7,0-1.3-0.4-1.3-1.2
    c0-1.2,0-2.4,0-3.6L15.6,19.1z"/>
</g>
</svg>
